PLOT:

Erotic and passionate adventures in this new thriller from the acclaimed ''Bound Heat'' series. In ancient Roman Empire is the ultimate evil stepmother Julia: beautiful and deceitful. She sells her own stepdaughter Nora as a white slave to Anthea. Nora is subject sadistic and erotic games as only the Romans could think of ...

NFO:


General
Complete name                    : C:UsersHomeDesktopTorrentsslave_tears_rome.avi
Format                           : AVI
Format/Info                      : Audio Video Interleave
File size                        : 1.18 GiB
Duration                         : 1h 23mn
Overall bit rate                 : 2 016 Kbps

Video
ID                               : 0
Format                           : mp43
Codec ID                         : mp43
Duration                         : 1h 23mn
Bit rate                         : 1 922 Kbps
Width                            : 720 pixels
Height                           : 404 pixels
Display aspect ratio             : 16:9
Frame rate                       : 29.970 fps
Bits/(Pixel*Frame)               : 0.221
Stream size                      : 1.12 GiB (95%)

Audio
ID                               : 1
Format                           : MPEG Audio
Format version                   : Version 1
Format profile                   : Layer 3
Mode                             : Joint stereo
Mode extension                   : MS Stereo
Codec ID                         : 55
Codec ID/Hint                    : MP3
Duration                         : 1h 23mn
Bit rate mode                    : Constant
Bit rate                         : 80.0 Kbps
Channel(s)                       : 2 channels
Sampling rate                    : 44.1 KHz
Compression mode                 : Lossy
Stream size                      : 47.9 MiB (4%)
Alignment                        : Aligned on interleaves
Interleave, duration             : 26 ms (0.78 video frame)
Writing library                  : LAME3.98.2

SCREENS:

 
http://www.myimghost.com/images/8NnFC.png 
http://www.myimghost.com/images/1x2jK.png 
http://www.myimghost.com/images/jTvOs.png


SEED AND ENJOY!!!